<svg data-noselect="" viewBox="0 0 400 300" width="400" height="300" preserveAspectRatio="none" version="1.1" xmlns="http://www.w3.org/2000/svg" style="background: rgba(255, 255, 255, 0);"><defs></defs> <g id="shape_VoJfkU9mZj" transform="translate(110.6101552773361,40.94191242121246) rotate(0,57.595708120204606,60) scale(1.3647304140404153,1.3647304140404153)" filter="" style="cursor: move; opacity: 1;"><g><rect fill="rgba(0,0,0,0)" width="135.1914162404092" height="140" x="-10" y="-10"></rect><svg version="1.1" id="图层_1" xmlns="http://www.w3.org/2000/svg" xmlns:xlink="http://www.w3.org/1999/xlink" x="0px" y="0px" style="enable-background:new 0 0 283.46 226.77;" xml:space="preserve" viewBox="47.16699981689453 15.642000198364258 187.666015625 195.5" width="115.19141624040921" height="120" preserveAspectRatio="none" data-parent="shape_VoJfkU9mZj">
<g>
	<path style="" d="M71.568,95.316C80.916,65.873,108.503,44.476,141,44.476c15.233,0,29.383,4.709,41.088,12.736
		c5.463-5.664,9.816-11.226,13.207-16.393C179.959,29.902,161.217,23.476,141,23.476c-42.877,0-79.129,28.908-90.29,68.258
		l9.411,1.809C63.951,94.278,67.772,94.866,71.568,95.316z" fill="#1C94D1"></path>
	<path style="" d="M218.333,15.642c0.213,8.312-4.227,20.558-12.948,33.474c-3.667,5.431-8.096,10.979-13.252,16.404
		C131,118.226,63.25,109.726,48.119,103.959c-0.624,4.361-0.952,8.817-0.952,13.35c0,10.495,1.741,20.59,4.936,30.021
		c11.473,0.902,22.485-0.184,22.484-0.186c53.219-3.519,103.512-30.19,128.347-68.098c4.395-6.707,7.998-13.763,10.673-21.107
		C218.448,44.645,220.273,30.416,218.333,15.642z" fill="#2493C9"></path>
	<g>
		<path style="" d="M75.856,184.759c31.036-3.313,85.446-19.591,127.427-74.325
			c4.387-7.078,7.955-14.125,10.719-20.869c1.248-3.044,2.331-6.025,3.256-8.922c-2.336,3.997-4.932,7.929-7.807,11.782
			c-2.101,2.816-4.336,5.593-6.721,8.322c-28.404,32.502-73.562,54.179-120.978,58.843c-6.1,0.601-12.234,0.933-18.378,0.956
			l-5.622,0.021C62.46,169.59,68.601,177.748,75.856,184.759z" fill="#8EB828"></path>
		<path style="" d="M225.884,77.36c0.354,6.68,0.03,13.346-0.929,19.951c-1.248,8.605-3.576,17.106-6.844,25.407
			c-14.091,35.799-45.818,67.814-85.457,88.041c2.751,0.244,5.532,0.383,8.346,0.383c51.74,0,93.833-42.094,93.833-93.833
			C234.833,103.027,231.615,89.488,225.884,77.36z" fill="#8EB828"></path>
	</g>
</g>
</svg></g> <!----></g><g id="shapge_qpkmujfIfb" transform="translate(110.61016048336947,210.16848376222396) rotate(0,65.5,17.91181735) scale(1.3647304140404153,1.3647304140404153)" filter="" style="cursor: move; opacity: 1;"><g><svg xmlns="http://www.w3.org/2000/svg" version="1.1" xmlns:xlink="http://www.w3.org/1999/xlink" overflow="hidden" style="top:0; left: 0" width="131" height="35.8236347" viewBox="0 0 131 35.8236347" preserveAspectRatio="none" data-parent="shapge_qpkmujfIfb"><rect fill="rgba(0,0,0,0)" width="131" height="35.8236347"></rect> <rect opacity="0"></rect><g transform="translate(0 0)" data-width="125.5868"><path fill="#356bb3" d="M6.50-15.64L6.50-18.27L2.51-18.27L2.51-19.78L6.50-19.78L6.50-20.97L10.08-20.97L10.08-19.78L20.53-19.78L20.53-20.97L24.05-20.97L24.05-19.78L28.35-19.78L27.53-18.27L24.05-18.27L24.05-15.64L20.53-15.64L20.53-18.27L10.08-18.27L10.08-15.64L6.50-15.64ZM27.22-14.07L26.56-12.59L24.65-12.59L26.28-9.89L22.45-9.89L20.78-12.59L19.34-12.59L17.74-9.89L13.85-9.89L16.92-15.23L20.88-15.23L20.22-14.07L27.22-14.07ZM9.61-9.89L9.61-15.23L13.19-15.23L13.19-9.89L9.61-9.89ZM5.02-9.89L5.02-15.23L8.60-15.23L8.60-9.89L5.02-9.89ZM27.50-9.29L27.50-3.14L29.51-3.14L28.67-1.66L1.85-1.66L1.85-3.14L3.86-3.14L3.86-9.29L27.50-9.29ZM23.92-9.01L22.83-7.79L20.53-7.79L20.53-3.14L23.92-3.14L23.92-9.01ZM16.95-3.14L16.95-7.79L13.85-7.79L13.85-3.14L16.95-3.14ZM7.44-7.79L7.44-3.14L10.27-3.14L10.27-7.79L7.44-7.79Z" transform="translate(0 27.001162)"></path><path fill="#356bb3" d="M8.45-17.99L7.50-15.79L3.70-15.79L5.90-20.88L9.70-20.88L9.07-19.43L24.43-19.43L22.76-15.10L23.48-15.10L22.64-13.66L17.99-13.66L17.99-9.23L23.48-9.23L23.48-15.10L27.32-15.10L27.32-7.79L7.97-7.79L7.97-3.17L27.69-3.17L27.38-1.76L4.14-1.76L4.14-15.10L18.96-15.10L20.06-17.99L8.45-17.99ZM14.10-13.66L7.97-13.66L7.97-9.23L14.10-9.23L14.10-13.66Z" transform="translate(31.3967 27.001162)"></path><path fill="#356bb3" d="M17.74-18.59L14.85-14.00L28.88-14.00L28.04-12.09L13.63-12.09L7.32-2.10L2.95-2.10L9.26-12.09L2.51-12.09L2.51-14.00L10.49-14.00L13.41-18.59L3.11-18.59L3.11-20.53L28.04-20.53L27.19-18.59L17.74-18.59ZM18.12-11.40L22.45-11.40L28.35-2.10L23.99-2.10L18.12-11.40Z" transform="translate(62.7934 27.001162)"></path><path fill="#356bb3" d="M27.79-10.71L23.70-10.71L23.64-10.83L23.01-9.64L17.64-9.64L17.64-3.20L27.06-3.20L26.28-1.66L4.33-1.66L4.33-3.20L13.75-3.20L13.75-9.64L7.60-9.64L7.60-10.71L3.61-10.71L6.12-15.29L3.61-15.29L3.61-19.03L13.66-19.03L12.72-20.97L16.51-20.97L17.39-19.03L27.79-19.03L27.79-15.29L25.24-15.29L27.79-10.71ZM7.57-16.36L10.83-16.36L7.91-11.15L23.45-11.15L20.53-16.36L23.92-16.36L23.92-17.61L7.57-17.61L7.57-16.36Z" transform="translate(94.1901 27.001162)"></path></g></svg></g> <!----></g>  <!----></svg>